<svg width="25" height="24" viewBox="0 0 25 24" fill="none" xmlns="http://www.w3.org/2000/svg">
<path d="M6 8C6 6.61929 7.11929 5.5 8.5 5.5C9.88071 5.5 11 6.61929 11 8C11 9.38071 9.88071 10.5 8.5 10.5C7.11929 10.5 6 9.38071 6 8ZM8.5 4C6.29086 4 4.5 5.79086 4.5 8C4.5 10.2091 6.29086 12 8.5 12C10.7091 12 12.5 10.2091 12.5 8C12.5 5.79086 10.7091 4 8.5 4ZM16 9C16 8.17157 16.6716 7.5 17.5 7.5C18.3284 7.5 19 8.17157 19 9C19 9.82843 18.3284 10.5 17.5 10.5C16.6716 10.5 16 9.82843 16 9ZM17.5 6C15.8431 6 14.5 7.34315 14.5 9C14.5 10.6569 15.8431 12 17.5 12C19.1569 12 20.5 10.6569 20.5 9C20.5 7.34315 19.1569 6 17.5 6ZM14.7484 19.0377C15.4507 19.3232 16.3517 19.5 17.501 19.5C19.7833 19.5 21.0867 18.8027 21.7979 17.9421C22.143 17.5244 22.3186 17.1027 22.4077 16.7795C22.4521 16.6181 22.4754 16.48 22.4875 16.377C22.4936 16.3254 22.497 16.2821 22.4988 16.2487C22.4997 16.232 22.5003 16.2177 22.5006 16.2059L22.5009 16.1903L22.501 16.1839L22.501 16.1811L22.501 16.1786C22.501 14.9754 21.5256 14 20.3224 14H14.6796C14.6521 14 14.6248 14.0005 14.5977 14.0015C14.9916 14.4126 15.2787 14.927 15.414 15.5H20.3224C20.694 15.5 20.9958 15.7986 21.0009 16.1689C21.0006 16.1746 20.9997 16.1855 20.9979 16.2011C20.9934 16.2387 20.9835 16.3015 20.9615 16.3812C20.9177 16.5402 20.8277 16.7613 20.6416 16.9865C20.2903 17.4116 19.4687 18 17.501 18C16.5209 18 15.8252 17.854 15.3302 17.655C15.2231 18.0551 15.0452 18.5378 14.7484 19.0377ZM4.75 14C3.50736 14 2.5 15.0074 2.5 16.25V16.5011L2.5 16.5022L2.50001 16.5048L2.50007 16.5111L2.50035 16.5277C2.50064 16.5406 2.50117 16.5571 2.5021 16.5771C2.50396 16.6169 2.50745 16.6705 2.51398 16.7358C2.52701 16.8661 2.55233 17.045 2.60165 17.2564C2.69995 17.6776 2.89654 18.2404 3.29183 18.8051C4.11066 19.9749 5.67178 21 8.5 21C11.3282 21 12.8893 19.9749 13.7082 18.8051C14.1035 18.2404 14.3001 17.6776 14.3983 17.2564C14.4477 17.045 14.473 16.8661 14.486 16.7358C14.4926 16.6705 14.496 16.6169 14.4979 16.5771C14.4988 16.5571 14.4994 16.5406 14.4996 16.5277L14.4999 16.5111L14.5 16.5048L14.5 16.5022L14.5 16.25C14.5 15.0074 13.4926 14 12.25 14H4.75ZM4.00047 16.5072L4 16.4947V16.25C4 15.8358 4.33579 15.5 4.75 15.5H12.25C12.6642 15.5 13 15.8358 13 16.25V16.4946L12.9995 16.5072C12.9988 16.5222 12.9972 16.5493 12.9935 16.5865C12.986 16.6612 12.9703 16.7753 12.9376 16.9155C12.8718 17.1974 12.7403 17.5721 12.4793 17.9449C11.9857 18.6501 10.9218 19.5 8.5 19.5C6.07822 19.5 5.01434 18.6501 4.52067 17.9449C4.25971 17.5721 4.12818 17.1974 4.06241 16.9155C4.0297 16.7753 4.014 16.6612 4.00653 16.5865C4.00281 16.5493 4.00117 16.5222 4.00047 16.5072Z" fill="#E6EFF7"/>
</svg>
