<svg width="27" height="26" viewBox="0 0 27 26" fill="none" xmlns="http://www.w3.org/2000/svg">
<path fill-rule="evenodd" clip-rule="evenodd" d="M2.80923 11.2192C2.19606 10.8801 1.85156 10.2864 1.85156 9.66567C1.85156 9.04383 2.19606 8.45017 2.80923 8.11217L11.8161 3.13425C12.8387 2.56983 14.1561 2.56983 15.1787 3.13425L24.1856 8.11217C24.7987 8.45017 25.1432 9.04383 25.1432 9.66567C25.1432 10.2864 24.7987 10.8801 24.1856 11.2192L15.1787 16.196C14.1561 16.7615 12.8387 16.7615 11.8161 16.196L2.80923 11.2192ZM3.59465 9.79675L12.6015 14.7736C13.1464 15.0747 13.8484 15.0747 14.3933 14.7736L23.4001 9.79675C23.4597 9.76425 23.5182 9.72525 23.5182 9.66567C23.5182 9.605 23.4597 9.56708 23.4001 9.5335L14.3933 4.55667C13.8484 4.2555 13.1464 4.2555 12.6015 4.55667L3.59465 9.5335C3.53506 9.56708 3.47656 9.605 3.47656 9.66567C3.47656 9.72525 3.53506 9.76425 3.59465 9.79675Z" fill="#E6EFF7"/>
<path fill-rule="evenodd" clip-rule="evenodd" d="M20.2682 12.1875C20.2682 11.739 20.6322 11.375 21.0807 11.375C21.5292 11.375 21.8932 11.739 21.8932 12.1875V17.0625C21.8932 19.3061 20.0743 21.125 17.8307 21.125H9.16406C6.92048 21.125 5.10156 19.3061 5.10156 17.0625V12.1875C5.10156 11.739 5.46556 11.375 5.91406 11.375C6.36256 11.375 6.72656 11.739 6.72656 12.1875V17.0625C6.72656 18.4091 7.81748 19.5 9.16406 19.5H17.8307C19.1773 19.5 20.2682 18.4091 20.2682 17.0625V12.1875Z" fill="#E6EFF7"/>
<path fill-rule="evenodd" clip-rule="evenodd" d="M12.9256 10.5954C12.6081 10.279 12.6081 9.76338 12.9256 9.44705C13.2419 9.12963 13.7576 9.12963 14.0739 9.44705L17.8656 13.2387C18.0183 13.3904 18.1039 13.5973 18.1039 13.8129V22.4795C18.1039 22.928 17.7399 23.292 17.2914 23.292C16.8429 23.292 16.4789 22.928 16.4789 22.4795V14.1498L12.9256 10.5954Z" fill="#E6EFF7"/>
</svg>
