<svg width="26" height="26" viewBox="0 0 26 26" fill="none" xmlns="http://www.w3.org/2000/svg">
<path fill-rule="evenodd" clip-rule="evenodd" d="M17.6016 21.1162V22.479C17.6016 22.9275 17.2376 23.2915 16.7891 23.2915C16.3406 23.2915 15.9766 22.9275 15.9766 22.479V21.1249H17.3307C17.4217 21.1249 17.5116 21.1216 17.6016 21.1162Z" fill="#0063AA"/>
<path fill-rule="evenodd" clip-rule="evenodd" d="M15.9766 21.125H8.66406C6.42048 21.125 4.60156 19.306 4.60156 17.0625V13.7236L10.7917 17.1437C12.1329 17.8847 13.8619 17.8847 15.2031 17.1437L15.9766 16.7169V21.125ZM17.6016 15.8188L21.3932 13.7236V17.0625C21.3932 19.215 19.7195 20.9765 17.6016 21.1163V15.8188Z" fill="#0063AA"/>
<path fill-rule="evenodd" clip-rule="evenodd" d="M15.9766 15.4788L14.6787 16.196C13.6561 16.7615 12.3387 16.7615 11.3161 16.196L2.30923 11.2192C1.69606 10.8801 1.35156 10.2864 1.35156 9.66567C1.35156 9.04383 1.69606 8.45017 2.30923 8.11217L11.3161 3.13425C12.3387 2.56983 13.6561 2.56983 14.6787 3.13425L23.6856 8.11217C24.2987 8.45017 24.6432 9.04383 24.6432 9.66567C24.6432 10.2864 24.2987 10.8801 23.6856 11.2192L17.6016 14.5808V13.8127C17.6016 13.5971 17.516 13.3902 17.3632 13.2385L13.5716 9.44683C13.2552 9.12942 12.7396 9.12942 12.4232 9.44683C12.1058 9.76317 12.1058 10.2788 12.4232 10.5952L15.9766 14.1496V15.4788Z" fill="#0063AA"/>
</svg>
