<svg width="21" height="20" viewBox="0 0 21 20" fill="none" xmlns="http://www.w3.org/2000/svg">
<path d="M12.5 9V14" stroke="#E6EFF7" stroke-width="1.5" stroke-linecap="round"/>
<path d="M8.5 9V14" stroke="#E6EFF7" stroke-width="1.5" stroke-linecap="round"/>
<path d="M10.5 0.75C11.2601 0.75 11.9889 0.980511 12.9375 1.52441C13.9057 2.07957 15.0381 2.92149 16.6172 4.09766C17.472 4.73433 18.0774 5.18616 18.5283 5.58203C18.9709 5.97057 19.2226 6.26996 19.3887 6.58203C19.7301 7.2238 19.75 7.9581 19.75 9.95117V11.4424C19.75 13.4841 19.748 14.9279 19.5762 16.0215C19.4099 17.0797 19.0988 17.7053 18.5479 18.1768C17.98 18.6627 17.1979 18.9493 15.9004 19.0986C14.5918 19.2492 12.8751 19.25 10.5 19.25C8.12494 19.25 6.40823 19.2492 5.09961 19.0986C3.80208 18.9493 3.02003 18.6627 2.45215 18.1768C1.90123 17.7053 1.59014 17.0797 1.42383 16.0215C1.25202 14.9279 1.25 13.4841 1.25 11.4424V9.95117C1.25 7.9581 1.2699 7.2238 1.61133 6.58203C1.77739 6.26996 2.02915 5.97057 2.47168 5.58203C2.92257 5.18616 3.52801 4.73433 4.38281 4.09766C5.96195 2.92149 7.0943 2.07957 8.0625 1.52441C9.01114 0.980511 9.73987 0.75 10.5 0.75Z" fill="#0063AA" stroke="#E6EFF7" stroke-width="1.5"/>
</svg>
