<svg width="25" height="24" viewBox="0 0 25 24" fill="none" xmlns="http://www.w3.org/2000/svg">
<g clip-path="url(#clip0_3105_19780)">
<path d="M14.5 11V16" stroke="#E6EFF7" stroke-width="1.5" stroke-linecap="round"/>
<path d="M10.5 11V16" stroke="#E6EFF7" stroke-width="1.5" stroke-linecap="round"/>
<path d="M12.5 2.75C13.2601 2.75 13.9889 2.98051 14.9375 3.52441C15.9057 4.07957 17.0381 4.92149 18.6172 6.09766C19.472 6.73433 20.0774 7.18616 20.5283 7.58203C20.9709 7.97057 21.2226 8.26996 21.3887 8.58203C21.7301 9.2238 21.75 9.9581 21.75 11.9512V13.4424C21.75 15.4841 21.748 16.9279 21.5762 18.0215C21.4099 19.0797 21.0988 19.7053 20.5479 20.1768C19.98 20.6627 19.1979 20.9493 17.9004 21.0986C16.5918 21.2492 14.8751 21.25 12.5 21.25C10.1249 21.25 8.40823 21.2492 7.09961 21.0986C5.80208 20.9493 5.02003 20.6627 4.45215 20.1768C3.90123 19.7053 3.59014 19.0797 3.42383 18.0215C3.25202 16.9279 3.25 15.4841 3.25 13.4424V11.9512C3.25 9.9581 3.2699 9.2238 3.61133 8.58203C3.77739 8.26996 4.02915 7.97057 4.47168 7.58203C4.92257 7.18616 5.52801 6.73433 6.38281 6.09766C7.96195 4.92149 9.0943 4.07957 10.0625 3.52441C11.0111 2.98051 11.7399 2.75 12.5 2.75Z" stroke="#E6EFF7" stroke-width="1.5"/>
</g>
<defs>
<clipPath id="clip0_3105_19780">
<rect width="24" height="24" fill="white" transform="translate(0.5)"/>
</clipPath>
</defs>
</svg>
