<svg width="24" height="24" viewBox="0 0 24 24" fill="none" xmlns="http://www.w3.org/2000/svg">
<g clip-path="url(#clip0_6_32)">
<path d="M18.5652 5.49622C20.2557 6.75528 21.1009 7.38481 21.5504 8.22966C22 9.07451 22 10.0334 22 11.9512V13.4425C22 17.4766 22 19.4936 20.5355 20.7468C19.0711 22 16.714 22 12 22C7.28595 22 4.92893 22 3.46447 20.7468C2 19.4936 2 17.4766 2 13.4425L2 11.9512C2 10.0334 2 9.07451 2.44955 8.22966C2.89911 7.38481 3.74432 6.75528 5.43476 5.49622C8.56413 3.16541 10.1288 2 12 2C13.8712 2 15.4359 3.16541 18.5652 5.49622Z" fill="#0063AA"/>
<path d="M14 11V16" stroke="white" stroke-width="1.5" stroke-linecap="round"/>
<path d="M10 11V16" stroke="white" stroke-width="1.5" stroke-linecap="round"/>
</g>
<defs>
<clipPath id="clip0_6_32">
<rect width="24" height="24" fill="white"/>
</clipPath>
</defs>
</svg>