<svg width="25" height="24" viewBox="0 0 25 24" fill="none" xmlns="http://www.w3.org/2000/svg">
<path fill-rule="evenodd" clip-rule="evenodd" d="M18.3707 18.0937C19.9382 16.5386 20.9089 14.3828 20.9089 12.0003C20.9089 7.25989 17.066 3.41699 12.3255 3.41699C7.58508 3.41699 3.74219 7.25989 3.74219 12.0003C3.74219 14.2976 4.64466 16.3841 6.11441 17.9245C7.39584 15.9254 9.63743 14.5995 12.19 14.5995C14.8139 14.5995 17.1092 16.0006 18.3707 18.0937ZM17.2002 19.0661C16.2289 17.2971 14.3486 16.0995 12.19 16.0995C10.0878 16.0995 8.24953 17.2354 7.25776 18.9287C8.67797 19.9692 10.43 20.5837 12.3255 20.5837C14.136 20.5837 15.8156 20.0231 17.2002 19.0661ZM12.3255 22.0837C17.8944 22.0837 22.4089 17.5692 22.4089 12.0003C22.4089 6.43146 17.8944 1.91699 12.3255 1.91699C6.75666 1.91699 2.24219 6.43146 2.24219 12.0003C2.24219 17.5692 6.75666 22.0837 12.3255 22.0837ZM12.3255 12.0692C13.3225 12.0692 14.1307 11.2609 14.1307 10.2639C14.1307 9.26689 13.3225 8.45865 12.3255 8.45865C11.3284 8.45865 10.5202 9.26689 10.5202 10.2639C10.5202 11.2609 11.3284 12.0692 12.3255 12.0692ZM12.3255 13.5692C14.1509 13.5692 15.6307 12.0894 15.6307 10.2639C15.6307 8.43847 14.1509 6.95865 12.3255 6.95865C10.5 6.95865 9.0202 8.43847 9.0202 10.2639C9.0202 12.0894 10.5 13.5692 12.3255 13.5692Z" fill="#E6EFF7"/>
</svg>
